<svg width="24" height="24" viewBox="0 0 24 24" fill="none" xmlns="http://www.w3.org/2000/svg">
<circle cx="12" cy="12" r="12" transform="rotate(180 12 12)" fill="url(#paint0_linear_6817_12562)"/>
<path d="M7.32829 7.18939C6.11544 7.18939 5.14258 8.16225 5.14258 9.37511V9.86796H18.8569V9.37511C18.8569 8.16225 17.884 7.18939 16.6711 7.18939H7.32829ZM5.14258 10.3608V16.8108H18.8569V10.3608H5.14258ZM10.3583 10.858H13.6369V12.2165C13.6369 13.1251 12.904 13.8537 11.9954 13.8537C11.0869 13.8537 10.354 13.1208 10.354 12.2165V10.858H10.3583ZM11.9997 11.2608C11.674 11.2608 11.4126 11.5222 11.4126 11.848C11.4126 12.0751 11.5454 12.2808 11.7511 12.3794L11.554 13.2708H12.4411L12.244 12.3794C12.4497 12.2851 12.5826 12.0751 12.5826 11.848C12.5826 11.5222 12.3211 11.2608 11.9954 11.2608H11.9997Z" fill="white"/>
<defs>
<linearGradient id="paint0_linear_6817_12562" x1="10.5" y1="1.87161e-06" x2="10.5" y2="24" gradientUnits="userSpaceOnUse">
<stop offset="0.1" stop-color="#F57F00"/>
<stop offset="0.9" stop-color="#F7911A"/>
</linearGradient>
</defs>
</svg>
