<svg width="42" height="42" viewBox="0 0 42 42" fill="none" xmlns="http://www.w3.org/2000/svg">
<circle cx="21" cy="21" r="21" fill="#FDF2E2"/>
<path d="M28.2367 12.0248C29.7046 11.491 30.7821 10.3599 31.295 9.00638C30.0314 8.29921 28.4791 8.12582 27.0112 8.65961C25.5442 9.19339 24.4657 10.3245 23.9528 11.678C25.2165 12.3852 26.7688 12.5586 28.2367 12.0248Z" fill="#FF9017"/>
<path d="M21.2576 12.4696C19.8914 12.4696 18.5851 12.7274 17.385 13.1967L16.6551 11.6317C16.184 10.6222 15.3488 9.85607 14.3021 9.47571L9.55983 7.75L9.125 8.94465L13.8664 10.6704C14.5944 10.9354 15.1745 11.4674 15.5022 12.1691L16.2303 13.7305C12.8887 15.5252 10.6165 19.052 10.6165 23.1098C10.6165 28.9859 15.3806 33.75 21.2567 33.75C27.1328 33.75 31.8969 28.9859 31.8969 23.1098C31.8969 17.2337 27.1328 12.4696 21.2567 12.4696H21.2576ZM21.2576 32.7514C15.9416 32.7514 11.616 28.4258 11.616 23.1098C11.616 19.4596 13.6558 16.276 16.6551 14.6392L20.4932 22.8692C17.8443 23.9096 15.1963 24.6948 12.5483 22.5769C12.5374 22.753 12.5319 22.9301 12.5319 23.108C12.5319 27.9274 16.4391 31.8346 21.2585 31.8346C26.078 31.8346 29.9851 27.9274 29.9851 23.108C29.9851 22.9201 29.9787 22.734 29.9669 22.5497C27.2036 20.341 24.4394 21.2933 21.6761 22.3972L17.8098 14.1063C18.881 13.6942 20.0439 13.4682 21.2585 13.4682C26.5745 13.4682 30.9001 17.7929 30.9001 23.1098C30.9001 28.4267 26.5745 32.7514 21.2585 32.7514H21.2576Z" fill="#FF9017"/>
</svg>
