<svg width="42" height="42" viewBox="0 0 42 42" fill="none" xmlns="http://www.w3.org/2000/svg">
<g clip-path="url(#clip0_6687_39758)">
<path d="M21 42C32.598 42 42 32.598 42 21C42 9.40202 32.598 0 21 0C9.40202 0 0 9.40202 0 21C0 32.598 9.40202 42 21 42Z" fill="url(#paint0_linear_6687_39758)"/>
<path d="M7.32617 33.5C10.9326 32.0472 15.7297 31.1641 20.9997 31.1641C26.2697 31.1641 31.0668 32.0472 34.6732 33.5" stroke="white" stroke-width="0.968542" stroke-miterlimit="10"/>
<path d="M14.2587 26.3271C14.2587 26.3271 12.2305 27.1988 10.4016 25.3928C8.82349 23.8374 9.07987 21.8604 9.07987 21.8604C9.07987 21.8604 11.2961 21.6781 12.7888 22.829C14.5094 24.1565 14.2587 26.3328 14.2587 26.3328V26.3271Z" fill="white" stroke="white" stroke-width="0.74065" stroke-miterlimit="10"/>
<path d="M14.2772 27.3787C14.2772 27.3787 15.9066 28.9967 18.3678 27.9712C20.4929 27.0824 21 25.077 21 25.077C21 25.077 18.9262 24.0458 17.0404 24.5756C14.8697 25.1909 14.2715 27.3787 14.2715 27.3787H14.2772Z" fill="white" stroke="white" stroke-width="0.74065" stroke-miterlimit="10"/>
<path d="M14.2715 26.2787V31.6541" stroke="white" stroke-width="0.968542" stroke-miterlimit="10"/>
<path d="M22.9521 8.87698C25.2069 8.43252 26.7092 9.72458 27.2324 10.2696L27.3359 10.3789L27.4844 10.3535C27.9569 10.2743 28.9327 10.1769 29.9648 10.4717C30.915 10.7432 31.9205 11.3491 32.6367 12.6377L32.7812 12.9366C33.8819 15.2177 32.516 17.2093 32.0195 17.8174L31.9443 17.9102L31.957 18.0284C32.0216 18.6178 31.9832 19.4433 31.6904 20.2188C31.4 20.9878 30.8636 21.7005 29.9287 22.1055C29.368 22.3458 28.8084 22.4473 28.2695 22.4473C27.3222 22.4473 26.4417 22.1305 25.7451 21.7002V17.9356L27.8623 15.3701L28.0439 15.1504L27.8242 14.9688L26.9463 14.2451L26.7266 14.0645L26.5449 14.2842L25.751 15.2481V14.1973H24.042V17.5127L23.0439 16.545L22.8398 16.3477L22.6416 16.5518L21.8496 17.3662L21.6504 17.5703L21.8555 17.7686L24.042 19.8955V21.1758C22.5257 21.545 21.1925 21.5348 20.1133 21.1856C19.0608 20.845 18.2365 20.1801 17.7061 19.2022L17.6045 19.002C16.5717 16.8612 17.2995 14.0571 19.2256 12.6436L19.3281 12.5684L19.3408 12.4424C19.3778 12.0643 19.5168 11.3235 20.0234 10.6055C20.5248 9.89516 21.4007 9.18414 22.9521 8.87601V8.87698Z" fill="white" stroke="white" stroke-width="0.56973"/>
<path d="M24.6748 21.6043C24.8296 21.7486 25.0023 21.8851 25.1865 22.0145V30.8905H24.6172V21.6209C24.6364 21.6158 24.6554 21.6097 24.6748 21.6043Z" fill="white" stroke="white" stroke-width="0.56973"/>
</g>
<defs>
<linearGradient id="paint0_linear_6687_39758" x1="21" y1="0" x2="21" y2="42" gradientUnits="userSpaceOnUse">
<stop offset="0.15" stop-color="#F7911A"/>
<stop offset="1" stop-color="#F57F00"/>
</linearGradient>
<clipPath id="clip0_6687_39758">
<rect width="42" height="42" fill="white"/>
</clipPath>
</defs>
</svg>
