<svg width="42" height="42" viewBox="0 0 42 42" fill="none" xmlns="http://www.w3.org/2000/svg">
<circle cx="21" cy="21" r="21" fill="#FDF2E2"/>
<path d="M15.25 19.4875C12.9125 19.4875 11 17.5875 11 15.2375C11 12.8875 12.9 11 15.25 11C17.6 11 19.5 12.9 19.5 15.25C19.5 17.6 17.6 19.5 15.25 19.5V19.4875ZM15.25 12.6625C13.825 12.6625 12.675 13.825 12.675 15.2375C12.675 16.65 13.8375 17.8125 15.25 17.8125C16.6625 17.8125 17.825 16.65 17.825 15.2375C17.825 13.825 16.6625 12.6625 15.25 12.6625Z" fill="#F7911A"/>
<path d="M26.75 31C24.4125 31 22.5 29.1 22.5 26.75C22.5 24.4 24.4 22.5 26.75 22.5C29.1 22.5 31 24.4 31 26.75C31 29.1 29.1 31 26.75 31ZM26.75 24.175C25.325 24.175 24.175 25.3375 24.175 26.75C24.175 28.1625 25.3375 29.325 26.75 29.325C28.1625 29.325 29.325 28.1625 29.325 26.75C29.325 25.3375 28.1625 24.175 26.75 24.175Z" fill="#F7911A"/>
<path d="M12.4125 30.425C12.2 30.425 11.9875 30.3375 11.825 30.175C11.5 29.85 11.5 29.325 11.825 29L29 11.8125C29.325 11.4875 29.85 11.4875 30.175 11.8125C30.5 12.1375 30.5 12.6625 30.175 12.9875L13 30.175C12.8375 30.3375 12.625 30.425 12.4125 30.425Z" fill="#F7911A"/>
</svg>
