<svg width="26" height="26" viewBox="0 0 26 26" fill="none" xmlns="http://www.w3.org/2000/svg">
<path d="M13.0091 5.82703C13.0547 5.19649 13.2629 4.58853 13.6135 4.06249C13.9642 3.53645 14.4452 3.11031 15.0097 2.82566C15.5741 2.54102 16.2028 2.4076 16.8342 2.43843C17.4656 2.46926 18.0783 2.66329 18.6123 3.00157C18.6734 3.04152 18.7226 3.09718 18.7547 3.1627C18.7868 3.22821 18.8007 3.30118 18.7949 3.37391C18.7891 3.44665 18.7638 3.51647 18.7216 3.57605C18.6795 3.63563 18.6221 3.68277 18.5555 3.7125C17.6271 4.1302 16.839 4.80704 16.2859 5.66172C15.7328 6.51641 15.4382 7.51259 15.4375 8.53063C15.4375 8.64946 15.4375 8.76828 15.4497 8.88508C15.4553 8.9589 15.4406 9.03285 15.4072 9.09894C15.3739 9.16503 15.3231 9.22074 15.2603 9.26005C15.1976 9.29936 15.1253 9.32079 15.0513 9.322C14.9773 9.32322 14.9043 9.30419 14.8403 9.26696C14.2418 8.92459 13.7523 8.41996 13.4282 7.81129C13.1042 7.20262 12.9589 6.51474 13.0091 5.82703ZM24.375 16.3113C24.3765 16.7756 24.2478 17.231 24.0037 17.6259C23.7596 18.0208 23.4097 18.3395 22.9938 18.5457L22.9491 18.566L19.0054 20.2459C18.9664 20.263 18.926 20.2766 18.8845 20.2865L12.3845 21.9115C12.3201 21.928 12.254 21.9365 12.1875 21.9369H1.625C1.19402 21.9369 0.780698 21.7657 0.475952 21.4609C0.171205 21.1562 0 20.7429 0 20.3119V16.2494C0 15.8184 0.171205 15.4051 0.475952 15.1003C0.780698 14.7956 1.19402 14.6244 1.625 14.6244H4.53883L6.83617 12.326C7.13741 12.0234 7.49563 11.7835 7.89012 11.6202C8.28461 11.4569 8.70756 11.3733 9.13453 11.3744H14.2188C14.6479 11.3743 15.0715 11.4714 15.4579 11.6584C15.8442 11.8453 16.1832 12.1173 16.4494 12.4539C16.7157 12.7905 16.9023 13.183 16.9953 13.602C17.0882 14.021 17.0852 14.4556 16.9863 14.8732L21.2357 13.8962C21.6056 13.7982 21.9931 13.7865 22.3683 13.8619C22.7435 13.9374 23.0963 14.098 23.3996 14.3313C23.7029 14.5647 23.9486 14.8645 24.1177 15.2078C24.2868 15.5511 24.3748 15.9286 24.375 16.3113ZM22.75 16.3113C22.7499 16.177 22.7188 16.0445 22.6592 15.9241C22.5996 15.8037 22.513 15.6987 22.4062 15.6171C22.2995 15.5356 22.1753 15.4798 22.0435 15.454C21.9117 15.4282 21.7756 15.4331 21.646 15.4684L21.6145 15.4765L14.8098 17.0416C14.7502 17.0549 14.6892 17.0617 14.628 17.0619H11.375C11.1595 17.0619 10.9529 16.9763 10.8005 16.8239C10.6481 16.6715 10.5625 16.4649 10.5625 16.2494C10.5625 16.0339 10.6481 15.8272 10.8005 15.6749C10.9529 15.5225 11.1595 15.4369 11.375 15.4369H14.2188C14.542 15.4369 14.852 15.3085 15.0805 15.0799C15.3091 14.8514 15.4375 14.5414 15.4375 14.2181C15.4375 13.8949 15.3091 13.5849 15.0805 13.3563C14.852 13.1278 14.542 12.9994 14.2188 12.9994H9.13453C8.92106 12.9987 8.70957 13.0405 8.51238 13.1222C8.31518 13.204 8.13621 13.3242 7.98586 13.4757L5.6875 15.773V20.3119H12.0859L18.4265 18.7265L22.2859 17.0832C22.4263 17.0092 22.5439 16.8981 22.6257 16.7621C22.7075 16.626 22.7505 16.4701 22.75 16.3113ZM17.0625 8.53063C17.0625 9.25377 17.2769 9.96066 17.6787 10.5619C18.0804 11.1632 18.6515 11.6318 19.3196 11.9086C19.9877 12.1853 20.7228 12.2577 21.4321 12.1166C22.1413 11.9755 22.7928 11.6273 23.3041 11.116C23.8154 10.6047 24.1637 9.95317 24.3047 9.24393C24.4458 8.53468 24.3734 7.79953 24.0967 7.13144C23.82 6.46335 23.3513 5.89232 22.7501 5.49057C22.1488 5.08881 21.4419 4.87438 20.7188 4.87438C19.7491 4.87438 18.8191 5.25959 18.1334 5.94527C17.4477 6.63095 17.0625 7.56093 17.0625 8.53063Z" fill="#F57F00"/>
</svg>
