<svg width="42" height="42" viewBox="0 0 42 42" fill="none" xmlns="http://www.w3.org/2000/svg">
<circle cx="21" cy="21" r="21" fill="#FDF2E2"/>
<path d="M30.5539 27.2523C30.3857 26.7477 29.8047 26.3094 28.6733 26.5846L24.9629 27.4867C24.7947 27.3287 24.5807 27.2064 24.3208 27.1299L19.5809 25.7386C18.6737 25.4735 17.8226 25.443 16.9001 25.657L15.7992 25.9067V25.606C15.7992 25.1728 15.4475 24.8263 15.0194 24.8263H12.1755C11.7423 24.8263 11.3906 25.1779 11.3906 25.606V31.0594C11.3906 31.4926 11.7423 31.8392 12.1755 31.8392H15.0194C15.4526 31.8392 15.7992 31.4875 15.7992 31.0594V30.7893L19.693 31.9208C20.2027 32.0686 20.7073 32.145 21.2016 32.145C21.9101 32.145 22.593 31.9972 23.2912 31.6965L29.6416 28.9443C30.3654 28.6283 30.768 27.8893 30.559 27.2574L30.5539 27.2523ZM19.3465 26.5234L24.0863 27.9148C24.2596 27.9658 24.3921 28.0473 24.4533 28.1391L24.4686 28.1646C24.5246 28.2563 24.5195 28.3429 24.5042 28.399C24.4533 28.608 24.1984 28.7914 23.7652 28.6997L18.9795 27.66C18.8725 27.6396 18.7654 27.66 18.6737 27.716C18.582 27.7772 18.5208 27.8639 18.4953 27.9709C18.4698 28.0779 18.4953 28.1849 18.5514 28.2767C18.6125 28.3684 18.6992 28.4296 18.8062 28.4551L23.5919 29.4948C23.7245 29.5253 23.8621 29.5406 23.9895 29.5406C24.7234 29.5406 25.1719 29.0717 25.2942 28.6029C25.3248 28.4856 25.335 28.3633 25.3248 28.241L28.8618 27.3797C29.3511 27.2624 29.7079 27.3134 29.7792 27.5173C29.8455 27.716 29.6722 28.0422 29.3103 28.2002L22.96 30.9524C21.9559 31.3856 20.9621 31.4468 19.9173 31.1461L15.7992 29.9484V26.7477L17.0785 26.4572C17.8684 26.2737 18.5718 26.2992 19.3515 26.5285L19.3465 26.5234Z" fill="#F57F00"/>
<path d="M22.0254 16.4933C22.0254 16.8348 22.163 17.0947 22.6268 17.2272V15.7339C22.2598 15.8052 22.0254 16.1008 22.0254 16.4933Z" fill="#F57F00"/>
<path d="M23.1113 18.2159V19.7755C23.5089 19.6787 23.7229 19.3933 23.7229 18.9346C23.7229 18.6237 23.5751 18.3536 23.1113 18.2159Z" fill="#F57F00"/>
<path d="M24.4168 11.677C24.5952 11.6464 24.7685 11.6107 24.9468 11.5699C25.2221 11.5088 25.3953 11.2336 25.3291 10.9584C25.2679 10.6831 24.9927 10.5149 24.7175 10.5761C24.5442 10.6169 24.3709 10.6373 24.1976 10.6628L25.0997 8.14502H20.4822L21.3945 10.6678C21.2212 10.6373 21.0428 10.6169 20.8695 10.5761C20.5994 10.5149 20.3242 10.6831 20.2579 10.9584C20.1968 11.2336 20.365 11.5088 20.6402 11.5699C20.8186 11.6107 20.997 11.6464 21.1753 11.677C18.9277 12.9868 16.6699 15.4026 16.6699 18.2007C16.6699 21.5797 19.4119 23.812 22.791 23.812C26.17 23.812 28.912 21.5797 28.912 18.2007C28.912 15.3975 26.7256 13.0225 24.4168 11.677ZM23.1121 20.5961V20.9324C23.1121 21.1057 23.0152 21.2026 22.8674 21.2026C22.7196 21.2026 22.633 21.1057 22.633 20.9324V20.6216C22.052 20.5961 21.5729 20.4024 21.2518 20.2036C21.1142 20.1221 21.0479 19.9896 21.0479 19.8469C21.0479 19.6175 21.211 19.4289 21.4658 19.4289C21.5474 19.4289 21.6442 19.4595 21.7258 19.5003C22.001 19.6481 22.3221 19.7704 22.633 19.7959V18.1242C21.7054 17.9713 21.1397 17.3903 21.1397 16.5595C21.1397 15.6523 21.7614 15 22.633 14.9133V14.6126C22.633 14.4393 22.7247 14.3425 22.8674 14.3425C23.0101 14.3425 23.1121 14.4393 23.1121 14.6126V14.9082C23.4943 14.9388 23.8358 15.056 24.1059 15.2038C24.2435 15.2854 24.325 15.423 24.325 15.581C24.325 15.795 24.162 15.9785 23.9326 15.9785C23.8664 15.9785 23.7848 15.9632 23.7185 15.9276C23.5147 15.8358 23.321 15.7747 23.107 15.739V17.3291C24.0957 17.4922 24.6105 18.063 24.6105 18.904C24.6105 19.8265 24.0396 20.4687 23.107 20.6012L23.1121 20.5961Z" fill="#F57F00"/>
</svg>
