<svg width="23" height="23" viewBox="0 0 23 23" fill="none" xmlns="http://www.w3.org/2000/svg">
<path d="M14.0986 2.39844C16.0009 0.658033 18.9212 0.47038 20.7246 2.28027C22.5836 4.14727 22.3259 7.20405 20.4346 9.10352V9.10449L18.1113 11.4355L18.1094 11.4385C17.9379 11.6045 17.7074 11.6961 17.4688 11.6943C17.2302 11.6925 17.0019 11.5972 16.833 11.4287C16.664 11.2601 16.5678 11.0317 16.5654 10.793C16.5631 10.5544 16.6548 10.3242 16.8203 10.1523L16.8223 10.1504L19.1445 7.81836C20.4587 6.50041 20.4634 4.59778 19.4346 3.56543C18.4091 2.53582 16.5211 2.53984 15.209 3.85742L10.5635 8.52148C9.25144 9.83831 9.24457 11.7386 10.2705 12.7715C10.3572 12.8557 10.4272 12.9572 10.4746 13.0684C10.5219 13.1794 10.5471 13.2992 10.5479 13.4199C10.5485 13.5406 10.5244 13.6599 10.4785 13.7715C10.4325 13.8832 10.3649 13.9851 10.2793 14.0703C10.1936 14.1556 10.0915 14.223 9.97949 14.2686C9.8676 14.314 9.74771 14.3373 9.62695 14.3359C9.50613 14.3346 9.38631 14.3087 9.27539 14.2607C9.16463 14.2128 9.06413 14.1436 8.98047 14.0566V14.0557C7.12456 12.1894 7.3831 9.13481 9.27344 7.23633L13.918 2.57129L14.0986 2.39844Z" fill="#F57F00" stroke="#F57F00" stroke-width="0.383333"/>
<path d="M13.373 8.67285C13.6146 8.67319 13.846 8.76943 14.0166 8.94043C15.8756 10.8065 15.618 13.8652 13.7266 15.7637L9.08203 20.4277V20.4287C7.18849 22.3282 4.13605 22.5891 2.27441 20.7197C0.41539 18.8527 0.672982 15.7959 2.56445 13.8955L4.8877 11.5645C4.9721 11.4797 5.07222 11.4122 5.18262 11.3662C5.29301 11.3202 5.41167 11.2961 5.53125 11.2959C5.65076 11.2957 5.76939 11.3197 5.87988 11.3652C5.99034 11.4108 6.09114 11.4772 6.17578 11.5615C6.2605 11.6459 6.32707 11.747 6.37305 11.8574C6.41891 11.9677 6.44311 12.0857 6.44336 12.2051C6.44358 12.3246 6.42048 12.4432 6.375 12.5537C6.32944 12.6643 6.26214 12.7649 6.17773 12.8496L3.85449 15.1816C2.54135 16.4997 2.53574 18.4023 3.56445 19.4346C4.58991 20.4642 6.47789 20.4602 7.79102 19.1426L12.4365 14.4795C13.7508 13.1605 13.7554 11.2589 12.7266 10.2266C12.5561 10.0555 12.4606 9.82351 12.4609 9.58203C12.4613 9.34054 12.5575 9.10901 12.7285 8.93848C12.8996 8.76791 13.1315 8.67255 13.373 8.67285Z" fill="#F57F00" stroke="#F57F00" stroke-width="0.383333"/>
</svg>
