<svg width="42" height="42" viewBox="0 0 42 42" fill="none" xmlns="http://www.w3.org/2000/svg">
<circle cx="21" cy="21" r="21" fill="#FDF2E2"/>
<path fill-rule="evenodd" clip-rule="evenodd" d="M25.529 29.2906C25.3243 25.4239 22.0552 22.2939 17.7645 22.2939C13.4739 22.2939 10 25.4239 10 29.2906C10.2047 30.2122 10.8168 30.7643 11.6356 30.7643H23.8955C24.917 30.5796 25.529 30.0275 25.529 29.2906Z" fill="#F57F00"/>
<path fill-rule="evenodd" clip-rule="evenodd" d="M17.7643 11C15.2811 11 13.2938 13.1516 13.2938 15.84C13.2938 18.26 15.2811 20.4115 17.7643 20.4115C19.9995 20.4115 22.2348 18.5284 22.2348 15.84C22.2348 13.1516 20.2474 11 17.7643 11Z" fill="#F57F00"/>
<path d="M25.7344 20.1944H32.7344M29.2352 23.9131V16.4756" stroke="#F57F00" stroke-width="1.3" stroke-miterlimit="10" stroke-linecap="round"/>
</svg>
