<svg width="152" height="32" viewBox="0 0 152 32" fill="none" xmlns="http://www.w3.org/2000/svg">
<path d="M16 0C7.164 0 0 7.16399 0 16C0 24.836 7.164 32 16 32C24.836 32 32 24.836 32 16C32 7.16399 24.836 0 16 0Z" fill="url(#paint0_linear_7696_1274)"/>
<path d="M20.7632 18.408C20.5178 17.8373 20.1552 17.32 19.6752 16.8507C19.1952 16.3867 18.6725 15.9493 18.0965 15.5387C17.5205 15.128 16.9872 14.7333 16.4858 14.3493C15.9845 13.9653 15.5952 13.5813 15.3125 13.192C15.0298 12.8027 14.9445 12.3973 15.0512 11.9653C15.1845 11.4373 15.5045 11.0853 16.0165 10.9093C16.5285 10.7333 17.1312 10.7333 17.8298 10.9093C18.2352 11.0107 18.6992 11.1653 19.0138 11.3573C20.3898 12.2 20.2778 13.6453 20.2778 13.6453L20.3312 13.6613L21.7445 14.0133L22.4005 11.384C22.4005 11.384 21.2645 10.6373 20.3898 10.2053C19.8885 9.95467 19.2645 9.704 18.6725 9.50667L19.3498 6.78667L17.6752 6.37067L17.0032 9.06933C16.2512 8.936 15.5418 8.904 14.8752 8.97867C14.0058 9.06933 13.2752 9.33067 12.6778 9.76267C12.0858 10.1893 11.6912 10.7867 11.5045 11.5493C11.3232 12.2747 11.3498 12.92 11.5845 13.496C11.8192 14.072 12.1818 14.5947 12.6672 15.0747C13.1525 15.5493 13.6805 15.9867 14.2565 16.392C14.8325 16.792 15.3658 17.192 15.8672 17.5813C16.3632 17.9707 16.7525 18.3653 17.0298 18.7707C17.3072 19.1707 17.3872 19.608 17.2698 20.0827C17.1258 20.6693 16.7685 21.0427 16.2032 21.2133C15.6378 21.384 14.9978 21.3787 14.2885 21.2027C14.0378 21.1387 13.7392 21.032 13.4405 20.8987C12.5658 20.52 11.9365 19.7627 11.7445 18.8827C11.7125 18.7387 11.6912 18.6427 11.6912 18.6427L10.2245 18.2747L9.58984 20.824C10.0218 21.1227 10.4538 21.4427 11.3498 21.896C12.1072 22.28 12.7258 22.5467 13.5898 22.7867L12.9338 25.4213L14.6085 25.8373L15.2805 23.1333C15.9098 23.2133 16.5232 23.2293 17.1098 23.1707C18.0592 23.0747 18.8698 22.792 19.5365 22.3227C20.2032 21.8533 20.6405 21.1973 20.8538 20.3493C21.0352 19.624 21.0032 18.9787 20.7578 18.408H20.7632Z" fill="white"/>
<path d="M43.4191 8.2502H47.2637V19.4057C47.2584 20.4509 47.0089 21.3648 46.5152 22.1473C46.0215 22.9246 45.3388 23.5286 44.4669 23.9593C43.6003 24.39 42.5972 24.6053 41.4575 24.6053C40.449 24.6053 39.5325 24.4294 38.708 24.0775C37.8886 23.7256 37.2347 23.1794 36.7463 22.4388C36.2631 21.6983 36.0241 20.7503 36.0294 19.5948H39.9133C39.9291 20.0097 40.0079 20.3642 40.1497 20.6583C40.2967 20.9472 40.4989 21.1652 40.7563 21.3122C41.0136 21.4593 41.3209 21.5328 41.678 21.5328C42.0509 21.5328 42.3661 21.454 42.6234 21.2965C42.8808 21.1337 43.0751 20.8947 43.2064 20.5796C43.343 20.2644 43.4139 19.8731 43.4191 19.4057V8.2502Z" fill="#F57F00"/>
<path d="M56.4099 19.1615V12.2838H60.2544V24.3847H56.5832V22.1316H56.4571C56.1893 22.8721 55.7323 23.4603 55.0863 23.8963C54.4456 24.3269 53.6709 24.5423 52.7623 24.5423C51.9377 24.5423 51.2129 24.3532 50.5879 23.9751C49.9629 23.5969 49.4771 23.0691 49.1304 22.3915C48.7838 21.7088 48.6078 20.9104 48.6026 19.9966V12.2838H52.455V19.2403C52.4603 19.8968 52.6336 20.4141 52.975 20.7923C53.3164 21.1704 53.7812 21.3595 54.3694 21.3595C54.7528 21.3595 55.0968 21.2755 55.4014 21.1074C55.7113 20.9341 55.9555 20.6846 56.1341 20.359C56.3179 20.0281 56.4099 19.6289 56.4099 19.1615Z" fill="#F57F00"/>
<path d="M61.5972 24.3847V12.2838H65.4497V24.3847H61.5972ZM63.5274 10.8736C62.9864 10.8736 62.5216 10.6951 62.133 10.3379C61.7443 9.97552 61.55 9.53959 61.55 9.03014C61.55 8.52593 61.7443 8.09526 62.133 7.73811C62.5216 7.37572 62.9864 7.19452 63.5274 7.19452C64.0736 7.19452 64.5384 7.37572 64.9218 7.73811C65.3105 8.09526 65.5048 8.52593 65.5048 9.03014C65.5048 9.53959 65.3105 9.97552 64.9218 10.3379C64.5384 10.6951 64.0736 10.8736 63.5274 10.8736Z" fill="#F57F00"/>
<path d="M72.4412 24.6132C71.1649 24.6132 70.0698 24.3506 69.156 23.8254C68.2474 23.3002 67.5488 22.5701 67.0604 21.6352C66.5719 20.6951 66.3277 19.6079 66.3277 18.3737C66.3277 17.1342 66.5719 16.047 67.0604 15.1121C67.5541 14.172 68.2552 13.4393 69.1639 12.9141C70.0777 12.3889 71.1675 12.1263 72.4333 12.1263C73.552 12.1263 74.5263 12.3285 75.3561 12.7329C76.1912 13.1373 76.8425 13.7098 77.3099 14.4503C77.7826 15.1856 78.0321 16.0496 78.0583 17.0423H74.458C74.3845 16.4225 74.1744 15.9367 73.8277 15.5848C73.4864 15.2329 73.0399 15.0569 72.4884 15.0569C72.042 15.0569 71.6507 15.183 71.3146 15.4351C70.9785 15.682 70.7159 16.0496 70.5268 16.538C70.343 17.0212 70.251 17.62 70.251 18.3343C70.251 19.0486 70.343 19.6526 70.5268 20.1463C70.7159 20.6347 70.9785 21.005 71.3146 21.2571C71.6507 21.5039 72.042 21.6274 72.4884 21.6274C72.8456 21.6274 73.1607 21.5512 73.4338 21.3989C73.7122 21.2466 73.9407 21.0234 74.1192 20.7292C74.2978 20.4299 74.4107 20.0675 74.458 19.6421H78.0583C78.0216 20.64 77.7721 21.5118 77.3099 22.2576C76.853 23.0034 76.2096 23.5838 75.3797 23.9987C74.5552 24.4084 73.5756 24.6132 72.4412 24.6132Z" fill="#F57F00"/>
<path d="M84.5771 24.6132C83.3114 24.6132 82.2189 24.3637 81.2998 23.8648C80.3859 23.3606 79.6821 22.6436 79.1884 21.714C78.7 20.7791 78.4558 19.6683 78.4558 18.3815C78.4558 17.1315 78.7026 16.0391 79.1963 15.1042C79.69 14.1641 80.3859 13.434 81.284 12.9141C82.1822 12.3889 83.2405 12.1263 84.459 12.1263C85.3203 12.1263 86.1081 12.2602 86.8224 12.5281C87.5367 12.7959 88.1538 13.1924 88.6738 13.7177C89.1937 14.2429 89.5982 14.8915 89.887 15.6636C90.1759 16.4304 90.3203 17.3101 90.3203 18.3028V19.2639H79.8029V17.0265H86.7358C86.7305 16.6168 86.6333 16.2518 86.4443 15.9314C86.2552 15.611 85.9952 15.3616 85.6643 15.183C85.3387 14.9992 84.9632 14.9073 84.5377 14.9073C84.1071 14.9073 83.721 15.0044 83.3796 15.1988C83.0383 15.3878 82.7678 15.6478 82.5682 15.9787C82.3686 16.3043 82.2636 16.6746 82.2531 17.0895V19.3663C82.2531 19.86 82.3502 20.2933 82.5446 20.6662C82.7389 21.0339 83.0146 21.3201 83.3718 21.5249C83.7289 21.7298 84.1543 21.8322 84.648 21.8322C84.9894 21.8322 85.2993 21.7849 85.5777 21.6904C85.856 21.5958 86.095 21.4567 86.2946 21.2728C86.4942 21.089 86.6438 20.8632 86.7436 20.5953L90.2809 20.6977C90.1339 21.4908 89.8109 22.1815 89.3119 22.7697C88.8182 23.3527 88.1696 23.807 87.366 24.1326C86.5624 24.453 85.6328 24.6132 84.5771 24.6132Z" fill="#F57F00"/>
<path d="M99.2443 24.3847H93.2805V8.2502H99.2364C100.88 8.2502 102.296 8.5732 103.483 9.21921C104.675 9.85997 105.594 10.7843 106.24 11.9923C106.886 13.1951 107.209 14.6342 107.209 16.3096C107.209 17.9903 106.886 19.4346 106.24 20.6426C105.599 21.8506 104.683 22.7776 103.491 23.4236C102.298 24.0643 100.883 24.3847 99.2443 24.3847ZM97.1802 21.0601H99.0946C99.9979 21.0601 100.762 20.9078 101.387 20.6032C102.017 20.2933 102.493 19.7917 102.813 19.0985C103.139 18.3999 103.302 17.4703 103.302 16.3096C103.302 15.1489 103.139 14.2245 102.813 13.5365C102.487 12.8432 102.007 12.3442 101.371 12.0396C100.741 11.7297 99.9638 11.5748 99.0394 11.5748H97.1802V21.0601Z" fill="#F57F00"/>
<path d="M114.025 24.6132C112.754 24.6132 111.662 24.3532 110.748 23.8333C109.839 23.308 109.138 22.578 108.645 21.6431C108.156 20.703 107.912 19.6132 107.912 18.3737C107.912 17.1289 108.156 16.0391 108.645 15.1042C109.138 14.1641 109.839 13.434 110.748 12.9141C111.662 12.3889 112.754 12.1263 114.025 12.1263C115.296 12.1263 116.386 12.3889 117.295 12.9141C118.209 13.434 118.91 14.1641 119.398 15.1042C119.892 16.0391 120.139 17.1289 120.139 18.3737C120.139 19.6132 119.892 20.703 119.398 21.6431C118.91 22.578 118.209 23.308 117.295 23.8333C116.386 24.3532 115.296 24.6132 114.025 24.6132ZM114.049 21.7061C114.511 21.7061 114.902 21.5643 115.223 21.2807C115.543 20.9971 115.787 20.6032 115.955 20.099C116.129 19.5948 116.215 19.0118 116.215 18.35C116.215 17.6778 116.129 17.0895 115.955 16.5853C115.787 16.0811 115.543 15.6872 115.223 15.4036C114.902 15.12 114.511 14.9782 114.049 14.9782C113.571 14.9782 113.167 15.12 112.836 15.4036C112.51 15.6872 112.261 16.0811 112.087 16.5853C111.919 17.0895 111.835 17.6778 111.835 18.35C111.835 19.0118 111.919 19.5948 112.087 20.099C112.261 20.6032 112.51 20.9971 112.836 21.2807C113.167 21.5643 113.571 21.7061 114.049 21.7061Z" fill="#F57F00"/>
<path d="M124.855 8.2502V24.3847H121.003V8.2502H124.855Z" fill="#F57F00"/>
<path d="M130.051 8.2502V24.3847H126.198V8.2502H130.051Z" fill="#F57F00"/>
<path d="M134.805 24.5896C134.033 24.5896 133.347 24.4609 132.749 24.2035C132.155 23.9409 131.685 23.547 131.338 23.0218C130.997 22.4913 130.826 21.8269 130.826 21.0286C130.826 20.3563 130.945 19.7891 131.181 19.3269C131.417 18.8647 131.743 18.4892 132.158 18.2003C132.573 17.9115 133.051 17.6935 133.592 17.5465C134.133 17.3941 134.71 17.2917 135.325 17.2392C136.013 17.1762 136.567 17.1105 136.987 17.0423C137.407 16.9687 137.712 16.8663 137.901 16.735C138.095 16.5984 138.192 16.4067 138.192 16.1599V16.1205C138.192 15.7161 138.053 15.4036 137.775 15.183C137.497 14.9624 137.121 14.8521 136.648 14.8521C136.139 14.8521 135.729 14.9624 135.419 15.183C135.109 15.4036 134.912 15.7082 134.828 16.0969L131.275 15.9708C131.38 15.2355 131.651 14.579 132.087 14.0013C132.528 13.4183 133.132 12.9614 133.899 12.6305C134.671 12.2943 135.598 12.1263 136.68 12.1263C137.452 12.1263 138.164 12.2182 138.815 12.402C139.466 12.5806 140.033 12.8432 140.517 13.1898C141 13.5312 141.373 13.9514 141.635 14.4503C141.903 14.9493 142.037 15.5191 142.037 16.1599V24.3847H138.413V22.6988H138.318C138.103 23.1085 137.827 23.4551 137.491 23.7387C137.16 24.0223 136.769 24.235 136.317 24.3768C135.871 24.5187 135.367 24.5896 134.805 24.5896ZM135.994 22.0685C136.409 22.0685 136.782 21.9845 137.113 21.8164C137.449 21.6484 137.717 21.4173 137.917 21.1232C138.116 20.8238 138.216 20.4771 138.216 20.0832V18.933C138.106 18.9908 137.972 19.0433 137.814 19.0906C137.662 19.1378 137.494 19.1825 137.31 19.2245C137.126 19.2665 136.937 19.3033 136.743 19.3348C136.549 19.3663 136.362 19.3952 136.184 19.4215C135.821 19.4792 135.511 19.5685 135.254 19.6893C135.002 19.8101 134.807 19.9677 134.671 20.162C134.54 20.3511 134.474 20.5769 134.474 20.8395C134.474 21.2387 134.616 21.5433 134.899 21.7534C135.188 21.9635 135.553 22.0685 135.994 22.0685Z" fill="#F57F00"/>
<path d="M143.283 24.3847V12.2838H147.025V14.4897H147.152C147.372 13.6914 147.732 13.0979 148.231 12.7092C148.73 12.3153 149.31 12.1184 149.972 12.1184C150.15 12.1184 150.334 12.1315 150.523 12.1578C150.712 12.1788 150.888 12.2129 151.051 12.2602V15.6084C150.867 15.5454 150.626 15.4955 150.326 15.4587C150.032 15.422 149.77 15.4036 149.539 15.4036C149.082 15.4036 148.669 15.506 148.302 15.7108C147.939 15.9104 147.653 16.1914 147.443 16.5538C147.238 16.9109 147.136 17.3311 147.136 17.8143V24.3847H143.283Z" fill="#F57F00"/>
<defs>
<linearGradient id="paint0_linear_7696_1274" x1="16" y1="0" x2="16" y2="32" gradientUnits="userSpaceOnUse">
<stop stop-color="#F7911A"/>
<stop offset="1" stop-color="#F57F00"/>
</linearGradient>
</defs>
</svg>
