<svg width="32" height="32" viewBox="0 0 32 32" fill="none" xmlns="http://www.w3.org/2000/svg">
  <!-- Base Bitcoin circle -->
  <circle cx="16" cy="16" r="16" fill="#F7911A"/>
  <!-- Bitcoin "B" mark (from Bitcoin.svg) -->
  <path d="M19.5144 9.30328L20.3144 6.30338L18.5145 5.80339L17.8145 8.7033C17.3145 8.6033 16.8145 8.5033 16.3145 8.40331L17.0145 5.40341L15.1146 5.00342L14.4146 8.00332C14.0146 7.90332 13.6146 7.80333 13.2146 7.70333L10.7147 7.10335L10.2147 9.10328C10.2147 9.10328 11.6147 9.40327 11.5147 9.40327C12.2147 9.60327 12.4147 10.1033 12.4147 10.5032L10.3147 18.703C10.2147 18.903 10.0148 19.303 9.41477 19.103L8.11481 18.803L7.21484 20.9029L9.61477 21.5029L10.9147 21.8029L10.1147 24.8028L11.9147 25.3028L12.7147 22.3029C13.2146 22.4029 13.7146 22.6028 14.2146 22.7028L13.5146 25.7027L15.3146 26.2027L16.1146 23.2028C19.2145 23.8028 21.6144 23.6028 22.6143 20.7029C23.4143 18.403 22.6143 17.103 20.9144 16.303C22.1144 16.0031 23.0143 15.2031 23.2143 13.6031C23.5143 11.3032 21.9144 10.1033 19.5144 9.30328ZM19.0145 19.4029C18.4145 21.7029 14.6146 20.4029 13.4146 20.1029L14.4146 16.1031C15.6146 16.403 19.6144 17.003 19.0145 19.4029ZM19.6144 13.5031C19.1145 15.6031 15.9146 14.5031 14.9146 14.3031L15.8146 10.6032C16.8145 10.8032 20.1144 11.3032 19.6144 13.5031Z" fill="white"/>
  <!-- Overlay token badge (from Group 427322437.svg), positioned bottom-right -->
  <g transform="translate(19 19)">
    <circle cx="6.5" cy="6.5" r="6.5" fill="#F17D00"/>
    <path d="M6.50045 5.39867C6.25311 5.39867 6.03165 5.27106 5.90798 5.05734L4.23549 2.16666H8.76541L7.09293 5.05734C6.96926 5.27106 6.7478 5.39867 6.50045 5.39867Z" fill="white"/>
    <path d="M8.04857 6.29069C7.80123 6.29069 7.57972 6.16307 7.45605 5.94931C7.33237 5.73559 7.33237 5.48036 7.45605 5.26659L9.12848 2.376L11.3934 6.29069H8.04853H8.04857Z" fill="white"/>
    <path d="M4.23549 10.8333L5.90798 7.94269C6.03165 7.72897 6.25311 7.60135 6.50045 7.60135C6.7478 7.60135 6.96926 7.72897 7.09293 7.94269L8.76541 10.8333H4.23549Z" fill="white"/>
    <path d="M7.45609 7.73343C7.33237 7.51971 7.33237 7.26448 7.45609 7.05071C7.57976 6.83699 7.80127 6.70938 8.04861 6.70938H11.3935L9.12857 10.624L7.45613 7.73347L7.45609 7.73343Z" fill="white"/>
    <path d="M1.60742 6.29069L3.87243 2.376L5.54482 5.26659C5.66853 5.48031 5.66853 5.73555 5.54482 5.94931C5.42115 6.16307 5.19964 6.29069 4.9523 6.29069H1.60742Z" fill="white"/>
    <path d="M1.60742 6.70933H4.95234C5.19968 6.70933 5.42119 6.83695 5.54486 7.05067C5.66853 7.26443 5.66853 7.51967 5.54486 7.73339L3.87247 10.6239L1.60742 6.70933Z" fill="white"/>
  </g>
</svg>


