<svg width="32" height="32" viewBox="0 0 32 32" fill="none" xmlns="http://www.w3.org/2000/svg">
<path d="M16 0C7.164 0 0 7.16399 0 16C0 24.836 7.164 32 16 32C24.836 32 32 24.836 32 16C32 7.16399 24.836 0 16 0Z" fill="url(#paint0_linear_7713_1926)"/>
<path d="M22.2779 9.6136C23.5707 9.1432 24.5211 8.1464 24.9731 6.9536C23.8595 6.3304 22.4915 6.1776 21.1979 6.648C19.9051 7.1184 18.9547 8.1152 18.5027 9.308C19.6163 9.9312 20.9843 10.084 22.2779 9.6136Z" fill="white"/>
<path d="M16.1275 10.9656C20.7683 10.9656 24.5443 14.7416 24.5443 19.3824C24.5443 24.0232 20.7683 27.7992 16.1275 27.7992C11.4867 27.7992 7.71075 24.0232 7.71075 19.3824C7.71075 14.7416 11.4867 10.9656 16.1275 10.9656ZM16.1275 10.0056C10.9491 10.0056 6.75075 14.204 6.75075 19.3824C6.75075 24.5608 10.9491 28.7592 16.1275 28.7592C21.3059 28.7592 25.5043 24.5608 25.5043 19.3824C25.5043 14.204 21.3059 10.0056 16.1275 10.0056Z" fill="white"/>
<path d="M16.2259 20.8272L11.0555 9.74C10.7675 9.1216 10.2555 8.6528 9.61395 8.4192L5.43555 6.8984L5.81875 5.8456L9.99715 7.3664C10.9195 7.7024 11.6555 8.3768 12.0707 9.2664L17.2411 20.3536L16.2259 20.8272Z" fill="white"/>
<path d="M8.45155 18.9136C8.44195 19.0688 8.43715 19.2248 8.43715 19.3816C8.43715 23.6288 11.8803 27.072 16.1275 27.072C20.3747 27.072 23.8179 23.6288 23.8179 19.3816C23.8179 19.216 23.8123 19.052 23.8019 18.8896C18.6851 14.8008 13.5683 23.0056 8.45155 18.9136Z" fill="white"/>
<defs>
<linearGradient id="paint0_linear_7713_1926" x1="16" y1="0" x2="16" y2="32" gradientUnits="userSpaceOnUse">
<stop stop-color="#F7911A"/>
<stop offset="1" stop-color="#F57F00"/>
</linearGradient>
</defs>
</svg>


