<svg width="32" height="32" viewBox="0 0 32 32" fill="none" xmlns="http://www.w3.org/2000/svg">
<path d="M16 0C7.164 0 0 7.16399 0 16C0 24.836 7.164 32 16 32C24.836 32 32 24.836 32 16C32 7.16399 24.836 0 16 0Z" fill="url(#paint0_linear_7713_1232)"/>
<path d="M20.7632 18.3092C20.5178 17.7385 20.1552 17.2212 19.6752 16.7519C19.1952 16.2879 18.6725 15.8505 18.0965 15.4399C17.5205 15.0292 16.9872 14.6345 16.4858 14.2505C15.9845 13.8665 15.5952 13.4825 15.3125 13.0932C15.0298 12.7039 14.9445 12.2985 15.0512 11.8665C15.1845 11.3385 15.5045 10.9865 16.0165 10.8105C16.5285 10.6345 17.1312 10.6345 17.8298 10.8105C18.2352 10.9119 18.6992 11.0665 19.0138 11.2585C20.3898 12.1012 20.2778 13.5465 20.2778 13.5465L20.3312 13.5625L21.7445 13.9145L22.4005 11.2852C22.4005 11.2852 21.2645 10.5385 20.3898 10.1065C19.8885 9.85588 19.2645 9.60521 18.6725 9.40787L19.3498 6.68787L17.6752 6.27187L17.0032 8.97054C16.2512 8.83721 15.5418 8.80521 14.8752 8.87987C14.0058 8.97054 13.2752 9.23187 12.6778 9.66387C12.0858 10.0905 11.6912 10.6879 11.5045 11.4505C11.3232 12.1759 11.3498 12.8212 11.5845 13.3972C11.8192 13.9732 12.1818 14.4959 12.6672 14.9759C13.1525 15.4505 13.6805 15.8879 14.2565 16.2932C14.8325 16.6932 15.3658 17.0932 15.8672 17.4825C16.3632 17.8719 16.7525 18.2665 17.0298 18.6719C17.3072 19.0719 17.3872 19.5092 17.2698 19.9839C17.1258 20.5705 16.7685 20.9439 16.2032 21.1145C15.6378 21.2852 14.9978 21.2799 14.2885 21.1039C14.0378 21.0399 13.7392 20.9332 13.4405 20.7999C12.5658 20.4212 11.9365 19.6639 11.7445 18.7839C11.7125 18.6399 11.6912 18.5439 11.6912 18.5439L10.2245 18.1759L9.58984 20.7252C10.0218 21.0239 10.4538 21.3439 11.3498 21.7972C12.1072 22.1812 12.7258 22.4479 13.5898 22.6879L12.9338 25.3225L14.6085 25.7385L15.2805 23.0345C15.9098 23.1145 16.5232 23.1305 17.1098 23.0719C18.0592 22.9759 18.8698 22.6932 19.5365 22.2239C20.2032 21.7545 20.6405 21.0985 20.8538 20.2505C21.0352 19.5252 21.0032 18.8799 20.7578 18.3092H20.7632Z" fill="white"/>
<defs>
<linearGradient id="paint0_linear_7713_1232" x1="16" y1="0" x2="16" y2="32" gradientUnits="userSpaceOnUse">
<stop stop-color="#F7911A"/>
<stop offset="1" stop-color="#F57F00"/>
</linearGradient>
</defs>
</svg>


